<svg xmlns="http://www.w3.org/2000/svg" viewBox="0 0 256 256" width="256" height="256"><rect width="256" height="256" fill="#ffffff" /><rect x="2" y="2" width="12" height="12" fill="#000000" /><rect x="14" y="2" width="12" height="12" fill="#000000" /><rect x="26" y="2" width="12" height="12" fill="#000000" /><rect x="38" y="2" width="12" height="12" fill="#000000" /><rect x="50" y="2" width="12" height="12" fill="#000000" /><rect x="62" y="2" width="12" height="12" fill="#000000" /><rect x="74" y="2" width="12" height="12" fill="#000000" /><rect x="110" y="2" width="12" height="12" fill="#000000" /><rect x="146" y="2" width="12" height="12" fill="#000000" /><rect x="170" y="2" width="12" height="12" fill="#000000" /><rect x="182" y="2" width="12" height="12" fill="#000000" /><rect x="194" y="2" width="12" height="12" fill="#000000" /><rect x="206" y="2" width="12" height="12" fill="#000000" /><rect x="218" y="2" width="12" height="12" fill="#000000" /><rect x="230" y="2" width="12" height="12" fill="#000000" /><rect x="242" y="2" width="12" height="12" fill="#000000" /><rect x="2" y="14" width="12" height="12" fill="#000000" /><rect x="74" y="14" width="12" height="12" fill="#000000" /><rect x="98" y="14" width="12" height="12" fill="#000000" /><rect x="122" y="14" width="12" height="12" fill="#000000" /><rect x="134" y="14" width="12" height="12" fill="#000000" /><rect x="170" y="14" width="12" height="12" fill="#000000" /><rect x="242" y="14" width="12" height="12" fill="#000000" /><rect x="2" y="26" width="12" height="12" fill="#000000" /><rect x="26" y="26" width="12" height="12" fill="#000000" /><rect x="38" y="26" width="12" height="12" fill="#000000" /><rect x="50" y="26" width="12" height="12" fill="#000000" /><rect x="74" y="26" width="12" height="12" fill="#000000" /><rect x="110" y="26" width="12" height="12" fill="#000000" /><rect x="146" y="26" width="12" height="12" fill="#000000" /><rect x="170" y="26" width="12" height="12" fill="#000000" /><rect x="194" y="26" width="12" height="12" fill="#000000" /><rect x="206" y="26" width="12" height="12" fill="#000000" /><rect x="218" y="26" width="12" height="12" fill="#000000" /><rect x="242" y="26" width="12" height="12" fill="#000000" /><rect x="2" y="38" width="12" height="12" fill="#000000" /><rect x="26" y="38" width="12" height="12" fill="#000000" /><rect x="38" y="38" width="12" height="12" fill="#000000" /><rect x="50" y="38" width="12" height="12" fill="#000000" /><rect x="74" y="38" width="12" height="12" fill="#000000" /><rect x="110" y="38" width="12" height="12" fill="#000000" /><rect x="170" y="38" width="12" height="12" fill="#000000" /><rect x="194" y="38" width="12" height="12" fill="#000000" /><rect x="206" y="38" width="12" height="12" fill="#000000" /><rect x="218" y="38" width="12" height="12" fill="#000000" /><rect x="242" y="38" width="12" height="12" fill="#000000" /><rect x="2" y="50" width="12" height="12" fill="#000000" /><rect x="26" y="50" width="12" height="12" fill="#000000" /><rect x="38" y="50" width="12" height="12" fill="#000000" /><rect x="50" y="50" width="12" height="12" fill="#000000" /><rect x="74" y="50" width="12" height="12" fill="#000000" /><rect x="98" y="50" width="12" height="12" fill="#000000" /><rect x="110" y="50" width="12" height="12" fill="#000000" /><rect x="122" y="50" width="12" height="12" fill="#000000" /><rect x="146" y="50" width="12" height="12" fill="#000000" /><rect x="170" y="50" width="12" height="12" fill="#000000" /><rect x="194" y="50" width="12" height="12" fill="#000000" /><rect x="206" y="50" width="12" height="12" fill="#000000" /><rect x="218" y="50" width="12" height="12" fill="#000000" /><rect x="242" y="50" width="12" height="12" fill="#000000" /><rect x="2" y="62" width="12" height="12" fill="#000000" /><rect x="74" y="62" width="12" height="12" fill="#000000" /><rect x="122" y="62" width="12" height="12" fill="#000000" /><rect x="146" y="62" width="12" height="12" fill="#000000" /><rect x="170" y="62" width="12" height="12" fill="#000000" /><rect x="242" y="62" width="12" height="12" fill="#000000" /><rect x="2" y="74" width="12" height="12" fill="#000000" /><rect x="14" y="74" width="12" height="12" fill="#000000" /><rect x="26" y="74" width="12" height="12" fill="#000000" /><rect x="38" y="74" width="12" height="12" fill="#000000" /><rect x="50" y="74" width="12" height="12" fill="#000000" /><rect x="62" y="74" width="12" height="12" fill="#000000" /><rect x="74" y="74" width="12" height="12" fill="#000000" /><rect x="98" y="74" width="12" height="12" fill="#000000" /><rect x="122" y="74" width="12" height="12" fill="#000000" /><rect x="146" y="74" width="12" height="12" fill="#000000" /><rect x="170" y="74" width="12" height="12" fill="#000000" /><rect x="182" y="74" width="12" height="12" fill="#000000" /><rect x="194" y="74" width="12" height="12" fill="#000000" /><rect x="206" y="74" width="12" height="12" fill="#000000" /><rect x="218" y="74" width="12" height="12" fill="#000000" /><rect x="230" y="74" width="12" height="12" fill="#000000" /><rect x="242" y="74" width="12" height="12" fill="#000000" /><rect x="110" y="86" width="12" height="12" fill="#000000" /><rect x="134" y="86" width="12" height="12" fill="#000000" /><rect x="146" y="86" width="12" height="12" fill="#000000" /><rect x="2" y="98" width="12" height="12" fill="#000000" /><rect x="14" y="98" width="12" height="12" fill="#000000" /><rect x="38" y="98" width="12" height="12" fill="#000000" /><rect x="62" y="98" width="12" height="12" fill="#000000" /><rect x="110" y="98" width="12" height="12" fill="#000000" /><rect x="122" y="98" width="12" height="12" fill="#000000" /><rect x="134" y="98" width="12" height="12" fill="#000000" /><rect x="194" y="98" width="12" height="12" fill="#000000" /><rect x="230" y="98" width="12" height="12" fill="#000000" /><rect x="2" y="110" width="12" height="12" fill="#000000" /><rect x="14" y="110" width="12" height="12" fill="#000000" /><rect x="38" y="110" width="12" height="12" fill="#000000" /><rect x="50" y="110" width="12" height="12" fill="#000000" /><rect x="86" y="110" width="12" height="12" fill="#000000" /><rect x="98" y="110" width="12" height="12" fill="#000000" /><rect x="170" y="110" width="12" height="12" fill="#000000" /><rect x="182" y="110" width="12" height="12" fill="#000000" /><rect x="194" y="110" width="12" height="12" fill="#000000" /><rect x="230" y="110" width="12" height="12" fill="#000000" /><rect x="242" y="110" width="12" height="12" fill="#000000" /><rect x="2" y="122" width="12" height="12" fill="#000000" /><rect x="14" y="122" width="12" height="12" fill="#000000" /><rect x="74" y="122" width="12" height="12" fill="#000000" /><rect x="86" y="122" width="12" height="12" fill="#000000" /><rect x="98" y="122" width="12" height="12" fill="#000000" /><rect x="122" y="122" width="12" height="12" fill="#000000" /><rect x="146" y="122" width="12" height="12" fill="#000000" /><rect x="158" y="122" width="12" height="12" fill="#000000" /><rect x="182" y="122" width="12" height="12" fill="#000000" /><rect x="194" y="122" width="12" height="12" fill="#000000" /><rect x="206" y="122" width="12" height="12" fill="#000000" /><rect x="218" y="122" width="12" height="12" fill="#000000" /><rect x="230" y="122" width="12" height="12" fill="#000000" /><rect x="242" y="122" width="12" height="12" fill="#000000" /><rect x="2" y="134" width="12" height="12" fill="#000000" /><rect x="14" y="134" width="12" height="12" fill="#000000" /><rect x="26" y="134" width="12" height="12" fill="#000000" /><rect x="50" y="134" width="12" height="12" fill="#000000" /><rect x="62" y="134" width="12" height="12" fill="#000000" /><rect x="86" y="134" width="12" height="12" fill="#000000" /><rect x="98" y="134" width="12" height="12" fill="#000000" /><rect x="110" y="134" width="12" height="12" fill="#000000" /><rect x="194" y="134" width="12" height="12" fill="#000000" /><rect x="230" y="134" width="12" height="12" fill="#000000" /><rect x="2" y="146" width="12" height="12" fill="#000000" /><rect x="14" y="146" width="12" height="12" fill="#000000" /><rect x="38" y="146" width="12" height="12" fill="#000000" /><rect x="50" y="146" width="12" height="12" fill="#000000" /><rect x="74" y="146" width="12" height="12" fill="#000000" /><rect x="98" y="146" width="12" height="12" fill="#000000" /><rect x="110" y="146" width="12" height="12" fill="#000000" /><rect x="122" y="146" width="12" height="12" fill="#000000" /><rect x="146" y="146" width="12" height="12" fill="#000000" /><rect x="158" y="146" width="12" height="12" fill="#000000" /><rect x="182" y="146" width="12" height="12" fill="#000000" /><rect x="194" y="146" width="12" height="12" fill="#000000" /><rect x="98" y="158" width="12" height="12" fill="#000000" /><rect x="122" y="158" width="12" height="12" fill="#000000" /><rect x="134" y="158" width="12" height="12" fill="#000000" /><rect x="158" y="158" width="12" height="12" fill="#000000" /><rect x="218" y="158" width="12" height="12" fill="#000000" /><rect x="230" y="158" width="12" height="12" fill="#000000" /><rect x="2" y="170" width="12" height="12" fill="#000000" /><rect x="14" y="170" width="12" height="12" fill="#000000" /><rect x="26" y="170" width="12" height="12" fill="#000000" /><rect x="38" y="170" width="12" height="12" fill="#000000" /><rect x="50" y="170" width="12" height="12" fill="#000000" /><rect x="62" y="170" width="12" height="12" fill="#000000" /><rect x="74" y="170" width="12" height="12" fill="#000000" /><rect x="110" y="170" width="12" height="12" fill="#000000" /><rect x="122" y="170" width="12" height="12" fill="#000000" /><rect x="134" y="170" width="12" height="12" fill="#000000" /><rect x="182" y="170" width="12" height="12" fill="#000000" /><rect x="194" y="170" width="12" height="12" fill="#000000" /><rect x="218" y="170" width="12" height="12" fill="#000000" /><rect x="230" y="170" width="12" height="12" fill="#000000" /><rect x="242" y="170" width="12" height="12" fill="#000000" /><rect x="2" y="182" width="12" height="12" fill="#000000" /><rect x="74" y="182" width="12" height="12" fill="#000000" /><rect x="134" y="182" width="12" height="12" fill="#000000" /><rect x="146" y="182" width="12" height="12" fill="#000000" /><rect x="182" y="182" width="12" height="12" fill="#000000" /><rect x="242" y="182" width="12" height="12" fill="#000000" /><rect x="2" y="194" width="12" height="12" fill="#000000" /><rect x="26" y="194" width="12" height="12" fill="#000000" /><rect x="38" y="194" width="12" height="12" fill="#000000" /><rect x="50" y="194" width="12" height="12" fill="#000000" /><rect x="74" y="194" width="12" height="12" fill="#000000" /><rect x="98" y="194" width="12" height="12" fill="#000000" /><rect x="110" y="194" width="12" height="12" fill="#000000" /><rect x="122" y="194" width="12" height="12" fill="#000000" /><rect x="134" y="194" width="12" height="12" fill="#000000" /><rect x="194" y="194" width="12" height="12" fill="#000000" /><rect x="2" y="206" width="12" height="12" fill="#000000" /><rect x="26" y="206" width="12" height="12" fill="#000000" /><rect x="38" y="206" width="12" height="12" fill="#000000" /><rect x="50" y="206" width="12" height="12" fill="#000000" /><rect x="74" y="206" width="12" height="12" fill="#000000" /><rect x="110" y="206" width="12" height="12" fill="#000000" /><rect x="122" y="206" width="12" height="12" fill="#000000" /><rect x="134" y="206" width="12" height="12" fill="#000000" /><rect x="170" y="206" width="12" height="12" fill="#000000" /><rect x="182" y="206" width="12" height="12" fill="#000000" /><rect x="194" y="206" width="12" height="12" fill="#000000" /><rect x="218" y="206" width="12" height="12" fill="#000000" /><rect x="230" y="206" width="12" height="12" fill="#000000" /><rect x="2" y="218" width="12" height="12" fill="#000000" /><rect x="26" y="218" width="12" height="12" fill="#000000" /><rect x="38" y="218" width="12" height="12" fill="#000000" /><rect x="50" y="218" width="12" height="12" fill="#000000" /><rect x="74" y="218" width="12" height="12" fill="#000000" /><rect x="98" y="218" width="12" height="12" fill="#000000" /><rect x="122" y="218" width="12" height="12" fill="#000000" /><rect x="146" y="218" width="12" height="12" fill="#000000" /><rect x="170" y="218" width="12" height="12" fill="#000000" /><rect x="194" y="218" width="12" height="12" fill="#000000" /><rect x="218" y="218" width="12" height="12" fill="#000000" /><rect x="242" y="218" width="12" height="12" fill="#000000" /><rect x="2" y="230" width="12" height="12" fill="#000000" /><rect x="74" y="230" width="12" height="12" fill="#000000" /><rect x="122" y="230" width="12" height="12" fill="#000000" /><rect x="134" y="230" width="12" height="12" fill="#000000" /><rect x="194" y="230" width="12" height="12" fill="#000000" /><rect x="230" y="230" width="12" height="12" fill="#000000" /><rect x="2" y="242" width="12" height="12" fill="#000000" /><rect x="14" y="242" width="12" height="12" fill="#000000" /><rect x="26" y="242" width="12" height="12" fill="#000000" /><rect x="38" y="242" width="12" height="12" fill="#000000" /><rect x="50" y="242" width="12" height="12" fill="#000000" /><rect x="62" y="242" width="12" height="12" fill="#000000" /><rect x="74" y="242" width="12" height="12" fill="#000000" /><rect x="98" y="242" width="12" height="12" fill="#000000" /><rect x="110" y="242" width="12" height="12" fill="#000000" /><rect x="134" y="242" width="12" height="12" fill="#000000" /><rect x="146" y="242" width="12" height="12" fill="#000000" /><rect x="182" y="242" width="12" height="12" fill="#000000" /><rect x="230" y="242" width="12" height="12" fill="#000000" /><rect x="242" y="242" width="12" height="12" fill="#000000" /></svg>