<svg xmlns="http://www.w3.org/2000/svg" viewBox="0 0 256 256" width="256" height="256"><path d="M0 0h256v256H0z" fill="#ffffff"/><path fill="#000000" d="M2 2h12v12h-12zM14 2h12v12h-12zM26 2h12v12h-12zM38 2h12v12h-12zM50 2h12v12h-12zM62 2h12v12h-12zM74 2h12v12h-12zM110 2h12v12h-12zM146 2h12v12h-12zM170 2h12v12h-12zM182 2h12v12h-12zM194 2h12v12h-12zM206 2h12v12h-12zM218 2h12v12h-12zM230 2h12v12h-12zM242 2h12v12h-12zM2 14h12v12h-12zM74 14h12v12h-12zM98 14h12v12h-12zM122 14h12v12h-12zM134 14h12v12h-12zM170 14h12v12h-12zM242 14h12v12h-12zM2 26h12v12h-12zM26 26h12v12h-12zM38 26h12v12h-12zM50 26h12v12h-12zM74 26h12v12h-12zM110 26h12v12h-12zM146 26h12v12h-12zM170 26h12v12h-12zM194 26h12v12h-12zM206 26h12v12h-12zM218 26h12v12h-12zM242 26h12v12h-12zM2 38h12v12h-12zM26 38h12v12h-12zM38 38h12v12h-12zM50 38h12v12h-12zM74 38h12v12h-12zM110 38h12v12h-12zM170 38h12v12h-12zM194 38h12v12h-12zM206 38h12v12h-12zM218 38h12v12h-12zM242 38h12v12h-12zM2 50h12v12h-12zM26 50h12v12h-12zM38 50h12v12h-12zM50 50h12v12h-12zM74 50h12v12h-12zM98 50h12v12h-12zM110 50h12v12h-12zM122 50h12v12h-12zM146 50h12v12h-12zM170 50h12v12h-12zM194 50h12v12h-12zM206 50h12v12h-12zM218 50h12v12h-12zM242 50h12v12h-12zM2 62h12v12h-12zM74 62h12v12h-12zM122 62h12v12h-12zM146 62h12v12h-12zM170 62h12v12h-12zM242 62h12v12h-12zM2 74h12v12h-12zM14 74h12v12h-12zM26 74h12v12h-12zM38 74h12v12h-12zM50 74h12v12h-12zM62 74h12v12h-12zM74 74h12v12h-12zM98 74h12v12h-12zM122 74h12v12h-12zM146 74h12v12h-12zM170 74h12v12h-12zM182 74h12v12h-12zM194 74h12v12h-12zM206 74h12v12h-12zM218 74h12v12h-12zM230 74h12v12h-12zM242 74h12v12h-12zM110 86h12v12h-12zM134 86h12v12h-12zM146 86h12v12h-12zM2 98h12v12h-12zM14 98h12v12h-12zM38 98h12v12h-12zM62 98h12v12h-12zM110 98h12v12h-12zM122 98h12v12h-12zM134 98h12v12h-12zM194 98h12v12h-12zM230 98h12v12h-12zM2 110h12v12h-12zM14 110h12v12h-12zM38 110h12v12h-12zM50 110h12v12h-12zM86 110h12v12h-12zM98 110h12v12h-12zM170 110h12v12h-12zM182 110h12v12h-12zM194 110h12v12h-12zM230 110h12v12h-12zM242 110h12v12h-12zM2 122h12v12h-12zM14 122h12v12h-12zM74 122h12v12h-12zM86 122h12v12h-12zM98 122h12v12h-12zM122 122h12v12h-12zM146 122h12v12h-12zM158 122h12v12h-12zM182 122h12v12h-12zM194 122h12v12h-12zM206 122h12v12h-12zM218 122h12v12h-12zM230 122h12v12h-12zM242 122h12v12h-12zM2 134h12v12h-12zM14 134h12v12h-12zM26 134h12v12h-12zM50 134h12v12h-12zM62 134h12v12h-12zM86 134h12v12h-12zM98 134h12v12h-12zM110 134h12v12h-12zM194 134h12v12h-12zM230 134h12v12h-12zM2 146h12v12h-12zM14 146h12v12h-12zM38 146h12v12h-12zM50 146h12v12h-12zM74 146h12v12h-12zM98 146h12v12h-12zM110 146h12v12h-12zM122 146h12v12h-12zM146 146h12v12h-12zM158 146h12v12h-12zM182 146h12v12h-12zM194 146h12v12h-12zM98 158h12v12h-12zM122 158h12v12h-12zM134 158h12v12h-12zM158 158h12v12h-12zM218 158h12v12h-12zM230 158h12v12h-12zM2 170h12v12h-12zM14 170h12v12h-12zM26 170h12v12h-12zM38 170h12v12h-12zM50 170h12v12h-12zM62 170h12v12h-12zM74 170h12v12h-12zM110 170h12v12h-12zM122 170h12v12h-12zM134 170h12v12h-12zM182 170h12v12h-12zM194 170h12v12h-12zM218 170h12v12h-12zM230 170h12v12h-12zM242 170h12v12h-12zM2 182h12v12h-12zM74 182h12v12h-12zM134 182h12v12h-12zM146 182h12v12h-12zM182 182h12v12h-12zM242 182h12v12h-12zM2 194h12v12h-12zM26 194h12v12h-12zM38 194h12v12h-12zM50 194h12v12h-12zM74 194h12v12h-12zM98 194h12v12h-12zM110 194h12v12h-12zM122 194h12v12h-12zM134 194h12v12h-12zM194 194h12v12h-12zM2 206h12v12h-12zM26 206h12v12h-12zM38 206h12v12h-12zM50 206h12v12h-12zM74 206h12v12h-12zM110 206h12v12h-12zM122 206h12v12h-12zM134 206h12v12h-12zM170 206h12v12h-12zM182 206h12v12h-12zM194 206h12v12h-12zM218 206h12v12h-12zM230 206h12v12h-12zM2 218h12v12h-12zM26 218h12v12h-12zM38 218h12v12h-12zM50 218h12v12h-12zM74 218h12v12h-12zM98 218h12v12h-12zM122 218h12v12h-12zM146 218h12v12h-12zM170 218h12v12h-12zM194 218h12v12h-12zM218 218h12v12h-12zM242 218h12v12h-12zM2 230h12v12h-12zM74 230h12v12h-12zM122 230h12v12h-12zM134 230h12v12h-12zM194 230h12v12h-12zM230 230h12v12h-12zM2 242h12v12h-12zM14 242h12v12h-12zM26 242h12v12h-12zM38 242h12v12h-12zM50 242h12v12h-12zM62 242h12v12h-12zM74 242h12v12h-12zM98 242h12v12h-12zM110 242h12v12h-12zM134 242h12v12h-12zM146 242h12v12h-12zM182 242h12v12h-12zM230 242h12v12h-12zM242 242h12v12h-12z"/></svg>