<?xml version="1.0" standalone="yes"?><svg xmlns="http://www.w3.org/2000/svg" version="1.1" width="264" height="264" viewBox="0 0 264 264" shape-rendering="crispEdges"><rect x="0" y="0" width="264" height="264" fill="#fff"/><path fill="#000" d="M32 32h8v8H32V32M40 32h8v8H40V32M48 32h8v8H48V32M56 32h8v8H56V32M64 32h8v8H64V32M72 32h8v8H72V32M80 32h8v8H80V32M104 32h8v8H104V32M144 32h8v8H144V32M176 32h8v8H176V32M184 32h8v8H184V32M192 32h8v8H192V32M200 32h8v8H200V32M208 32h8v8H208V32M216 32h8v8H216V32M224 32h8v8H224V32M32 40h8v8H32V40M80 40h8v8H80V40M104 40h8v8H104V40M120 40h8v8H120V40M128 40h8v8H128V40M160 40h8v8H160V40M176 40h8v8H176V40M224 40h8v8H224V40M32 48h8v8H32V48M48 48h8v8H48V48M56 48h8v8H56V48M64 48h8v8H64V48M80 48h8v8H80V48M112 48h8v8H112V48M120 48h8v8H120V48M144 48h8v8H144V48M152 48h8v8H152V48M176 48h8v8H176V48M192 48h8v8H192V48M200 48h8v8H200V48M208 48h8v8H208V48M224 48h8v8H224V48M32 56h8v8H32V56M48 56h8v8H48V56M56 56h8v8H56V56M64 56h8v8H64V56M80 56h8v8H80V56M104 56h8v8H104V56M112 56h8v8H112V56M128 56h8v8H128V56M136 56h8v8H136V56M176 56h8v8H176V56M192 56h8v8H192V56M200 56h8v8H200V56M208 56h8v8H208V56M224 56h8v8H224V56M32 64h8v8H32V64M48 64h8v8H48V64M56 64h8v8H56V64M64 64h8v8H64V64M80 64h8v8H80V64M112 64h8v8H112V64M120 64h8v8H120V64M176 64h8v8H176V64M192 64h8v8H192V64M200 64h8v8H200V64M208 64h8v8H208V64M224 64h8v8H224V64M32 72h8v8H32V72M80 72h8v8H80V72M96 72h8v8H96V72M128 72h8v8H128V72M152 72h8v8H152V72M160 72h8v8H160V72M176 72h8v8H176V72M224 72h8v8H224V72M32 80h8v8H32V80M40 80h8v8H40V80M48 80h8v8H48V80M56 80h8v8H56V80M64 80h8v8H64V80M72 80h8v8H72V80M80 80h8v8H80V80M96 80h8v8H96V80M112 80h8v8H112V80M128 80h8v8H128V80M144 80h8v8H144V80M160 80h8v8H160V80M176 80h8v8H176V80M184 80h8v8H184V80M192 80h8v8H192V80M200 80h8v8H200V80M208 80h8v8H208V80M216 80h8v8H216V80M224 80h8v8H224V80M104 88h8v8H104V88M112 88h8v8H112V88M136 88h8v8H136V88M160 88h8v8H160V88M32 96h8v8H32V96M56 96h8v8H56V96M72 96h8v8H72V96M80 96h8v8H80V96M96 96h8v8H96V96M112 96h8v8H112V96M120 96h8v8H120V96M144 96h8v8H144V96M168 96h8v8H168V96M184 96h8v8H184V96M32 104h8v8H32V104M48 104h8v8H48V104M64 104h8v8H64V104M112 104h8v8H112V104M128 104h8v8H128V104M136 104h8v8H136V104M168 104h8v8H168V104M176 104h8v8H176V104M200 104h8v8H200V104M224 104h8v8H224V104M40 112h8v8H40V112M64 112h8v8H64V112M72 112h8v8H72V112M80 112h8v8H80V112M88 112h8v8H88V112M96 112h8v8H96V112M120 112h8v8H120V112M128 112h8v8H128V112M136 112h8v8H136V112M144 112h8v8H144V112M168 112h8v8H168V112M200 112h8v8H200V112M208 112h8v8H208V112M216 112h8v8H216V112M224 112h8v8H224V112M40 120h8v8H40V120M48 120h8v8H48V120M64 120h8v8H64V120M88 120h8v8H88V120M96 120h8v8H96V120M104 120h8v8H104V120M112 120h8v8H112V120M120 120h8v8H120V120M136 120h8v8H136V120M168 120h8v8H168V120M176 120h8v8H176V120M184 120h8v8H184V120M192 120h8v8H192V120M216 120h8v8H216V120M40 128h8v8H40V128M48 128h8v8H48V128M64 128h8v8H64V128M72 128h8v8H72V128M80 128h8v8H80V128M88 128h8v8H88V128M96 128h8v8H96V128M104 128h8v8H104V128M144 128h8v8H144V128M168 128h8v8H168V128M176 128h8v8H176V128M192 128h8v8H192V128M200 128h8v8H200V128M216 128h8v8H216V128M224 128h8v8H224V128M56 136h8v8H56V136M64 136h8v8H64V136M72 136h8v8H72V136M88 136h8v8H88V136M120 136h8v8H120V136M136 136h8v8H136V136M144 136h8v8H144V136M160 136h8v8H160V136M168 136h8v8H168V136M176 136h8v8H176V136M184 136h8v8H184V136M208 136h8v8H208V136M216 136h8v8H216V136M224 136h8v8H224V136M32 144h8v8H32V144M56 144h8v8H56V144M72 144h8v8H72V144M80 144h8v8H80V144M88 144h8v8H88V144M96 144h8v8H96V144M112 144h8v8H112V144M120 144h8v8H120V144M136 144h8v8H136V144M144 144h8v8H144V144M176 144h8v8H176V144M208 144h8v8H208V144M224 144h8v8H224V144M40 152h8v8H40V152M48 152h8v8H48V152M56 152h8v8H56V152M72 152h8v8H72V152M88 152h8v8H88V152M96 152h8v8H96V152M104 152h8v8H104V152M112 152h8v8H112V152M120 152h8v8H120V152M152 152h8v8H152V152M168 152h8v8H168V152M184 152h8v8H184V152M200 152h8v8H200V152M216 152h8v8H216V152M32 160h8v8H32V160M40 160h8v8H40V160M48 160h8v8H48V160M56 160h8v8H56V160M80 160h8v8H80V160M96 160h8v8H96V160M112 160h8v8H112V160M128 160h8v8H128V160M136 160h8v8H136V160M160 160h8v8H160V160M168 160h8v8H168V160M176 160h8v8H176V160M184 160h8v8H184V160M192 160h8v8H192V160M208 160h8v8H208V160M216 160h8v8H216V160M224 160h8v8H224V160M96 168h8v8H96V168M112 168h8v8H112V168M128 168h8v8H128V168M136 168h8v8H136V168M144 168h8v8H144V168M160 168h8v8H160V168M192 168h8v8H192V168M200 168h8v8H200V168M216 168h8v8H216V168M32 176h8v8H32V176M40 176h8v8H40V176M48 176h8v8H48V176M56 176h8v8H56V176M64 176h8v8H64V176M72 176h8v8H72V176M80 176h8v8H80V176M112 176h8v8H112V176M120 176h8v8H120V176M128 176h8v8H128V176M144 176h8v8H144V176M152 176h8v8H152V176M160 176h8v8H160V176M176 176h8v8H176V176M192 176h8v8H192V176M208 176h8v8H208V176M216 176h8v8H216V176M224 176h8v8H224V176M32 184h8v8H32V184M80 184h8v8H80V184M96 184h8v8H96V184M112 184h8v8H112V184M128 184h8v8H128V184M144 184h8v8H144V184M152 184h8v8H152V184M160 184h8v8H160V184M192 184h8v8H192V184M208 184h8v8H208V184M216 184h8v8H216V184M32 192h8v8H32V192M48 192h8v8H48V192M56 192h8v8H56V192M64 192h8v8H64V192M80 192h8v8H80V192M104 192h8v8H104V192M160 192h8v8H160V192M168 192h8v8H168V192M176 192h8v8H176V192M184 192h8v8H184V192M192 192h8v8H192V192M200 192h8v8H200V192M208 192h8v8H208V192M216 192h8v8H216V192M224 192h8v8H224V192M32 200h8v8H32V200M48 200h8v8H48V200M56 200h8v8H56V200M64 200h8v8H64V200M80 200h8v8H80V200M96 200h8v8H96V200M120 200h8v8H120V200M144 200h8v8H144V200M152 200h8v8H152V200M184 200h8v8H184V200M192 200h8v8H192V200M200 200h8v8H200V200M32 208h8v8H32V208M48 208h8v8H48V208M56 208h8v8H56V208M64 208h8v8H64V208M80 208h8v8H80V208M112 208h8v8H112V208M184 208h8v8H184V208M192 208h8v8H192V208M200 208h8v8H200V208M224 208h8v8H224V208M32 216h8v8H32V216M80 216h8v8H80V216M104 216h8v8H104V216M112 216h8v8H112V216M144 216h8v8H144V216M152 216h8v8H152V216M160 216h8v8H160V216M168 216h8v8H168V216M184 216h8v8H184V216M32 224h8v8H32V224M40 224h8v8H40V224M48 224h8v8H48V224M56 224h8v8H56V224M64 224h8v8H64V224M72 224h8v8H72V224M80 224h8v8H80V224M96 224h8v8H96V224M128 224h8v8H128V224M160 224h8v8H160V224M168 224h8v8H168V224M176 224h8v8H176V224M192 224h8v8H192V224M200 224h8v8H200V224M208 224h8v8H208V224M216 224h8v8H216V224M224 224h8v8H224V224"/></svg>