<?xml version="1.0" standalone="yes"?><svg xmlns="http://www.w3.org/2000/svg" version="1.1" width="232" height="232" viewBox="0 0 232 232" shape-rendering="crispEdges"><rect x="0" y="0" width="232" height="232" fill="#fff"/><path fill="#000" d="M32 32h8v8H32V32M40 32h8v8H40V32M48 32h8v8H48V32M56 32h8v8H56V32M64 32h8v8H64V32M72 32h8v8H72V32M80 32h8v8H80V32M104 32h8v8H104V32M128 32h8v8H128V32M144 32h8v8H144V32M152 32h8v8H152V32M160 32h8v8H160V32M168 32h8v8H168V32M176 32h8v8H176V32M184 32h8v8H184V32M192 32h8v8H192V32M32 40h8v8H32V40M80 40h8v8H80V40M96 40h8v8H96V40M112 40h8v8H112V40M120 40h8v8H120V40M144 40h8v8H144V40M192 40h8v8H192V40M32 48h8v8H32V48M48 48h8v8H48V48M56 48h8v8H56V48M64 48h8v8H64V48M80 48h8v8H80V48M104 48h8v8H104V48M128 48h8v8H128V48M144 48h8v8H144V48M160 48h8v8H160V48M168 48h8v8H168V48M176 48h8v8H176V48M192 48h8v8H192V48M32 56h8v8H32V56M48 56h8v8H48V56M56 56h8v8H56V56M64 56h8v8H64V56M80 56h8v8H80V56M104 56h8v8H104V56M144 56h8v8H144V56M160 56h8v8H160V56M168 56h8v8H168V56M176 56h8v8H176V56M192 56h8v8H192V56M32 64h8v8H32V64M48 64h8v8H48V64M56 64h8v8H56V64M64 64h8v8H64V64M80 64h8v8H80V64M96 64h8v8H96V64M104 64h8v8H104V64M112 64h8v8H112V64M128 64h8v8H128V64M144 64h8v8H144V64M160 64h8v8H160V64M168 64h8v8H168V64M176 64h8v8H176V64M192 64h8v8H192V64M32 72h8v8H32V72M80 72h8v8H80V72M112 72h8v8H112V72M128 72h8v8H128V72M144 72h8v8H144V72M192 72h8v8H192V72M32 80h8v8H32V80M40 80h8v8H40V80M48 80h8v8H48V80M56 80h8v8H56V80M64 80h8v8H64V80M72 80h8v8H72V80M80 80h8v8H80V80M96 80h8v8H96V80M112 80h8v8H112V80M128 80h8v8H128V80M144 80h8v8H144V80M152 80h8v8H152V80M160 80h8v8H160V80M168 80h8v8H168V80M176 80h8v8H176V80M184 80h8v8H184V80M192 80h8v8H192V80M104 88h8v8H104V88M120 88h8v8H120V88M128 88h8v8H128V88M32 96h8v8H32V96M48 96h8v8H48V96M64 96h8v8H64V96M80 96h8v8H80V96M104 96h8v8H104V96M112 96h8v8H112V96M120 96h8v8H120V96M160 96h8v8H160V96M184 96h8v8H184V96M40 104h8v8H40V104M56 104h8v8H56V104M64 104h8v8H64V104M88 104h8v8H88V104M96 104h8v8H96V104M144 104h8v8H144V104M152 104h8v8H152V104M160 104h8v8H160V104M184 104h8v8H184V104M192 104h8v8H192V104M40 112h8v8H40V112M80 112h8v8H80V112M88 112h8v8H88V112M96 112h8v8H96V112M112 112h8v8H112V112M128 112h8v8H128V112M136 112h8v8H136V112M152 112h8v8H152V112M160 112h8v8H160V112M168 112h8v8H168V112M176 112h8v8H176V112M184 112h8v8H184V112M192 112h8v8H192V112M40 120h8v8H40V120M48 120h8v8H48V120M64 120h8v8H64V120M72 120h8v8H72V120M88 120h8v8H88V120M96 120h8v8H96V120M104 120h8v8H104V120M160 120h8v8H160V120M184 120h8v8H184V120M40 128h8v8H40V128M56 128h8v8H56V128M64 128h8v8H64V128M80 128h8v8H80V128M96 128h8v8H96V128M104 128h8v8H104V128M112 128h8v8H112V128M128 128h8v8H128V128M136 128h8v8H136V128M152 128h8v8H152V128M160 128h8v8H160V128M96 136h8v8H96V136M112 136h8v8H112V136M120 136h8v8H120V136M136 136h8v8H136V136M176 136h8v8H176V136M184 136h8v8H184V136M32 144h8v8H32V144M40 144h8v8H40V144M48 144h8v8H48V144M56 144h8v8H56V144M64 144h8v8H64V144M72 144h8v8H72V144M80 144h8v8H80V144M104 144h8v8H104V144M112 144h8v8H112V144M120 144h8v8H120V144M152 144h8v8H152V144M160 144h8v8H160V144M176 144h8v8H176V144M184 144h8v8H184V144M192 144h8v8H192V144M32 152h8v8H32V152M80 152h8v8H80V152M120 152h8v8H120V152M128 152h8v8H128V152M152 152h8v8H152V152M192 152h8v8H192V152M32 160h8v8H32V160M48 160h8v8H48V160M56 160h8v8H56V160M64 160h8v8H64V160M80 160h8v8H80V160M96 160h8v8H96V160M104 160h8v8H104V160M112 160h8v8H112V160M120 160h8v8H120V160M160 160h8v8H160V160M32 168h8v8H32V168M48 168h8v8H48V168M56 168h8v8H56V168M64 168h8v8H64V168M80 168h8v8H80V168M104 168h8v8H104V168M112 168h8v8H112V168M120 168h8v8H120V168M144 168h8v8H144V168M152 168h8v8H152V168M160 168h8v8H160V168M176 168h8v8H176V168M184 168h8v8H184V168M32 176h8v8H32V176M48 176h8v8H48V176M56 176h8v8H56V176M64 176h8v8H64V176M80 176h8v8H80V176M96 176h8v8H96V176M112 176h8v8H112V176M128 176h8v8H128V176M144 176h8v8H144V176M160 176h8v8H160V176M176 176h8v8H176V176M192 176h8v8H192V176M32 184h8v8H32V184M80 184h8v8H80V184M112 184h8v8H112V184M120 184h8v8H120V184M160 184h8v8H160V184M184 184h8v8H184V184M32 192h8v8H32V192M40 192h8v8H40V192M48 192h8v8H48V192M56 192h8v8H56V192M64 192h8v8H64V192M72 192h8v8H72V192M80 192h8v8H80V192M96 192h8v8H96V192M104 192h8v8H104V192M120 192h8v8H120V192M128 192h8v8H128V192M152 192h8v8H152V192M184 192h8v8H184V192M192 192h8v8H192V192"/></svg>