<svg xmlns="http://www.w3.org/2000/svg" viewBox="0 0 256 256" width="256" height="256"><rect width="256" height="256" fill="#ffffff" /><rect x="3" y="3" width="10" height="10" fill="#000000" /><rect x="13" y="3" width="10" height="10" fill="#000000" /><rect x="23" y="3" width="10" height="10" fill="#000000" /><rect x="33" y="3" width="10" height="10" fill="#000000" /><rect x="43" y="3" width="10" height="10" fill="#000000" /><rect x="53" y="3" width="10" height="10" fill="#000000" /><rect x="63" y="3" width="10" height="10" fill="#000000" /><rect x="83" y="3" width="10" height="10" fill="#000000" /><rect x="103" y="3" width="10" height="10" fill="#000000" /><rect x="113" y="3" width="10" height="10" fill="#000000" /><rect x="133" y="3" width="10" height="10" fill="#000000" /><rect x="143" y="3" width="10" height="10" fill="#000000" /><rect x="153" y="3" width="10" height="10" fill="#000000" /><rect x="183" y="3" width="10" height="10" fill="#000000" /><rect x="193" y="3" width="10" height="10" fill="#000000" /><rect x="203" y="3" width="10" height="10" fill="#000000" /><rect x="213" y="3" width="10" height="10" fill="#000000" /><rect x="223" y="3" width="10" height="10" fill="#000000" /><rect x="233" y="3" width="10" height="10" fill="#000000" /><rect x="243" y="3" width="10" height="10" fill="#000000" /><rect x="3" y="13" width="10" height="10" fill="#000000" /><rect x="63" y="13" width="10" height="10" fill="#000000" /><rect x="93" y="13" width="10" height="10" fill="#000000" /><rect x="103" y="13" width="10" height="10" fill="#000000" /><rect x="113" y="13" width="10" height="10" fill="#000000" /><rect x="123" y="13" width="10" height="10" fill="#000000" /><rect x="163" y="13" width="10" height="10" fill="#000000" /><rect x="183" y="13" width="10" height="10" fill="#000000" /><rect x="243" y="13" width="10" height="10" fill="#000000" /><rect x="3" y="23" width="10" height="10" fill="#000000" /><rect x="23" y="23" width="10" height="10" fill="#000000" /><rect x="33" y="23" width="10" height="10" fill="#000000" /><rect x="43" y="23" width="10" height="10" fill="#000000" /><rect x="63" y="23" width="10" height="10" fill="#000000" /><rect x="93" y="23" width="10" height="10" fill="#000000" /><rect x="103" y="23" width="10" height="10" fill="#000000" /><rect x="153" y="23" width="10" height="10" fill="#000000" /><rect x="183" y="23" width="10" height="10" fill="#000000" /><rect x="203" y="23" width="10" height="10" fill="#000000" /><rect x="213" y="23" width="10" height="10" fill="#000000" /><rect x="223" y="23" width="10" height="10" fill="#000000" /><rect x="243" y="23" width="10" height="10" fill="#000000" /><rect x="3" y="33" width="10" height="10" fill="#000000" /><rect x="23" y="33" width="10" height="10" fill="#000000" /><rect x="33" y="33" width="10" height="10" fill="#000000" /><rect x="43" y="33" width="10" height="10" fill="#000000" /><rect x="63" y="33" width="10" height="10" fill="#000000" /><rect x="83" y="33" width="10" height="10" fill="#000000" /><rect x="93" y="33" width="10" height="10" fill="#000000" /><rect x="103" y="33" width="10" height="10" fill="#000000" /><rect x="123" y="33" width="10" height="10" fill="#000000" /><rect x="133" y="33" width="10" height="10" fill="#000000" /><rect x="153" y="33" width="10" height="10" fill="#000000" /><rect x="183" y="33" width="10" height="10" fill="#000000" /><rect x="203" y="33" width="10" height="10" fill="#000000" /><rect x="213" y="33" width="10" height="10" fill="#000000" /><rect x="223" y="33" width="10" height="10" fill="#000000" /><rect x="243" y="33" width="10" height="10" fill="#000000" /><rect x="3" y="43" width="10" height="10" fill="#000000" /><rect x="23" y="43" width="10" height="10" fill="#000000" /><rect x="33" y="43" width="10" height="10" fill="#000000" /><rect x="43" y="43" width="10" height="10" fill="#000000" /><rect x="63" y="43" width="10" height="10" fill="#000000" /><rect x="93" y="43" width="10" height="10" fill="#000000" /><rect x="123" y="43" width="10" height="10" fill="#000000" /><rect x="133" y="43" width="10" height="10" fill="#000000" /><rect x="143" y="43" width="10" height="10" fill="#000000" /><rect x="183" y="43" width="10" height="10" fill="#000000" /><rect x="203" y="43" width="10" height="10" fill="#000000" /><rect x="213" y="43" width="10" height="10" fill="#000000" /><rect x="223" y="43" width="10" height="10" fill="#000000" /><rect x="243" y="43" width="10" height="10" fill="#000000" /><rect x="3" y="53" width="10" height="10" fill="#000000" /><rect x="63" y="53" width="10" height="10" fill="#000000" /><rect x="103" y="53" width="10" height="10" fill="#000000" /><rect x="123" y="53" width="10" height="10" fill="#000000" /><rect x="133" y="53" width="10" height="10" fill="#000000" /><rect x="153" y="53" width="10" height="10" fill="#000000" /><rect x="183" y="53" width="10" height="10" fill="#000000" /><rect x="243" y="53" width="10" height="10" fill="#000000" /><rect x="3" y="63" width="10" height="10" fill="#000000" /><rect x="13" y="63" width="10" height="10" fill="#000000" /><rect x="23" y="63" width="10" height="10" fill="#000000" /><rect x="33" y="63" width="10" height="10" fill="#000000" /><rect x="43" y="63" width="10" height="10" fill="#000000" /><rect x="53" y="63" width="10" height="10" fill="#000000" /><rect x="63" y="63" width="10" height="10" fill="#000000" /><rect x="83" y="63" width="10" height="10" fill="#000000" /><rect x="103" y="63" width="10" height="10" fill="#000000" /><rect x="123" y="63" width="10" height="10" fill="#000000" /><rect x="143" y="63" width="10" height="10" fill="#000000" /><rect x="163" y="63" width="10" height="10" fill="#000000" /><rect x="183" y="63" width="10" height="10" fill="#000000" /><rect x="193" y="63" width="10" height="10" fill="#000000" /><rect x="203" y="63" width="10" height="10" fill="#000000" /><rect x="213" y="63" width="10" height="10" fill="#000000" /><rect x="223" y="63" width="10" height="10" fill="#000000" /><rect x="233" y="63" width="10" height="10" fill="#000000" /><rect x="243" y="63" width="10" height="10" fill="#000000" /><rect x="93" y="73" width="10" height="10" fill="#000000" /><rect x="113" y="73" width="10" height="10" fill="#000000" /><rect x="123" y="73" width="10" height="10" fill="#000000" /><rect x="163" y="73" width="10" height="10" fill="#000000" /><rect x="23" y="83" width="10" height="10" fill="#000000" /><rect x="43" y="83" width="10" height="10" fill="#000000" /><rect x="53" y="83" width="10" height="10" fill="#000000" /><rect x="63" y="83" width="10" height="10" fill="#000000" /><rect x="83" y="83" width="10" height="10" fill="#000000" /><rect x="93" y="83" width="10" height="10" fill="#000000" /><rect x="163" y="83" width="10" height="10" fill="#000000" /><rect x="173" y="83" width="10" height="10" fill="#000000" /><rect x="213" y="83" width="10" height="10" fill="#000000" /><rect x="243" y="83" width="10" height="10" fill="#000000" /><rect x="3" y="93" width="10" height="10" fill="#000000" /><rect x="13" y="93" width="10" height="10" fill="#000000" /><rect x="53" y="93" width="10" height="10" fill="#000000" /><rect x="93" y="93" width="10" height="10" fill="#000000" /><rect x="123" y="93" width="10" height="10" fill="#000000" /><rect x="133" y="93" width="10" height="10" fill="#000000" /><rect x="153" y="93" width="10" height="10" fill="#000000" /><rect x="163" y="93" width="10" height="10" fill="#000000" /><rect x="173" y="93" width="10" height="10" fill="#000000" /><rect x="183" y="93" width="10" height="10" fill="#000000" /><rect x="223" y="93" width="10" height="10" fill="#000000" /><rect x="233" y="93" width="10" height="10" fill="#000000" /><rect x="243" y="93" width="10" height="10" fill="#000000" /><rect x="3" y="103" width="10" height="10" fill="#000000" /><rect x="13" y="103" width="10" height="10" fill="#000000" /><rect x="63" y="103" width="10" height="10" fill="#000000" /><rect x="93" y="103" width="10" height="10" fill="#000000" /><rect x="123" y="103" width="10" height="10" fill="#000000" /><rect x="133" y="103" width="10" height="10" fill="#000000" /><rect x="153" y="103" width="10" height="10" fill="#000000" /><rect x="163" y="103" width="10" height="10" fill="#000000" /><rect x="173" y="103" width="10" height="10" fill="#000000" /><rect x="223" y="103" width="10" height="10" fill="#000000" /><rect x="233" y="103" width="10" height="10" fill="#000000" /><rect x="243" y="103" width="10" height="10" fill="#000000" /><rect x="3" y="113" width="10" height="10" fill="#000000" /><rect x="33" y="113" width="10" height="10" fill="#000000" /><rect x="83" y="113" width="10" height="10" fill="#000000" /><rect x="93" y="113" width="10" height="10" fill="#000000" /><rect x="113" y="113" width="10" height="10" fill="#000000" /><rect x="123" y="113" width="10" height="10" fill="#000000" /><rect x="133" y="113" width="10" height="10" fill="#000000" /><rect x="143" y="113" width="10" height="10" fill="#000000" /><rect x="173" y="113" width="10" height="10" fill="#000000" /><rect x="193" y="113" width="10" height="10" fill="#000000" /><rect x="13" y="123" width="10" height="10" fill="#000000" /><rect x="43" y="123" width="10" height="10" fill="#000000" /><rect x="63" y="123" width="10" height="10" fill="#000000" /><rect x="83" y="123" width="10" height="10" fill="#000000" /><rect x="93" y="123" width="10" height="10" fill="#000000" /><rect x="113" y="123" width="10" height="10" fill="#000000" /><rect x="123" y="123" width="10" height="10" fill="#000000" /><rect x="153" y="123" width="10" height="10" fill="#000000" /><rect x="163" y="123" width="10" height="10" fill="#000000" /><rect x="173" y="123" width="10" height="10" fill="#000000" /><rect x="183" y="123" width="10" height="10" fill="#000000" /><rect x="193" y="123" width="10" height="10" fill="#000000" /><rect x="233" y="123" width="10" height="10" fill="#000000" /><rect x="243" y="123" width="10" height="10" fill="#000000" /><rect x="23" y="133" width="10" height="10" fill="#000000" /><rect x="33" y="133" width="10" height="10" fill="#000000" /><rect x="43" y="133" width="10" height="10" fill="#000000" /><rect x="73" y="133" width="10" height="10" fill="#000000" /><rect x="93" y="133" width="10" height="10" fill="#000000" /><rect x="103" y="133" width="10" height="10" fill="#000000" /><rect x="143" y="133" width="10" height="10" fill="#000000" /><rect x="153" y="133" width="10" height="10" fill="#000000" /><rect x="163" y="133" width="10" height="10" fill="#000000" /><rect x="173" y="133" width="10" height="10" fill="#000000" /><rect x="183" y="133" width="10" height="10" fill="#000000" /><rect x="223" y="133" width="10" height="10" fill="#000000" /><rect x="233" y="133" width="10" height="10" fill="#000000" /><rect x="243" y="133" width="10" height="10" fill="#000000" /><rect x="3" y="143" width="10" height="10" fill="#000000" /><rect x="63" y="143" width="10" height="10" fill="#000000" /><rect x="93" y="143" width="10" height="10" fill="#000000" /><rect x="123" y="143" width="10" height="10" fill="#000000" /><rect x="133" y="143" width="10" height="10" fill="#000000" /><rect x="143" y="143" width="10" height="10" fill="#000000" /><rect x="153" y="143" width="10" height="10" fill="#000000" /><rect x="163" y="143" width="10" height="10" fill="#000000" /><rect x="173" y="143" width="10" height="10" fill="#000000" /><rect x="183" y="143" width="10" height="10" fill="#000000" /><rect x="193" y="143" width="10" height="10" fill="#000000" /><rect x="223" y="143" width="10" height="10" fill="#000000" /><rect x="233" y="143" width="10" height="10" fill="#000000" /><rect x="243" y="143" width="10" height="10" fill="#000000" /><rect x="13" y="153" width="10" height="10" fill="#000000" /><rect x="23" y="153" width="10" height="10" fill="#000000" /><rect x="33" y="153" width="10" height="10" fill="#000000" /><rect x="43" y="153" width="10" height="10" fill="#000000" /><rect x="53" y="153" width="10" height="10" fill="#000000" /><rect x="73" y="153" width="10" height="10" fill="#000000" /><rect x="93" y="153" width="10" height="10" fill="#000000" /><rect x="103" y="153" width="10" height="10" fill="#000000" /><rect x="123" y="153" width="10" height="10" fill="#000000" /><rect x="133" y="153" width="10" height="10" fill="#000000" /><rect x="143" y="153" width="10" height="10" fill="#000000" /><rect x="163" y="153" width="10" height="10" fill="#000000" /><rect x="173" y="153" width="10" height="10" fill="#000000" /><rect x="203" y="153" width="10" height="10" fill="#000000" /><rect x="233" y="153" width="10" height="10" fill="#000000" /><rect x="3" y="163" width="10" height="10" fill="#000000" /><rect x="43" y="163" width="10" height="10" fill="#000000" /><rect x="53" y="163" width="10" height="10" fill="#000000" /><rect x="63" y="163" width="10" height="10" fill="#000000" /><rect x="73" y="163" width="10" height="10" fill="#000000" /><rect x="93" y="163" width="10" height="10" fill="#000000" /><rect x="113" y="163" width="10" height="10" fill="#000000" /><rect x="123" y="163" width="10" height="10" fill="#000000" /><rect x="133" y="163" width="10" height="10" fill="#000000" /><rect x="143" y="163" width="10" height="10" fill="#000000" /><rect x="153" y="163" width="10" height="10" fill="#000000" /><rect x="163" y="163" width="10" height="10" fill="#000000" /><rect x="173" y="163" width="10" height="10" fill="#000000" /><rect x="183" y="163" width="10" height="10" fill="#000000" /><rect x="193" y="163" width="10" height="10" fill="#000000" /><rect x="203" y="163" width="10" height="10" fill="#000000" /><rect x="83" y="173" width="10" height="10" fill="#000000" /><rect x="93" y="173" width="10" height="10" fill="#000000" /><rect x="103" y="173" width="10" height="10" fill="#000000" /><rect x="113" y="173" width="10" height="10" fill="#000000" /><rect x="123" y="173" width="10" height="10" fill="#000000" /><rect x="133" y="173" width="10" height="10" fill="#000000" /><rect x="143" y="173" width="10" height="10" fill="#000000" /><rect x="163" y="173" width="10" height="10" fill="#000000" /><rect x="203" y="173" width="10" height="10" fill="#000000" /><rect x="223" y="173" width="10" height="10" fill="#000000" /><rect x="233" y="173" width="10" height="10" fill="#000000" /><rect x="3" y="183" width="10" height="10" fill="#000000" /><rect x="13" y="183" width="10" height="10" fill="#000000" /><rect x="23" y="183" width="10" height="10" fill="#000000" /><rect x="33" y="183" width="10" height="10" fill="#000000" /><rect x="43" y="183" width="10" height="10" fill="#000000" /><rect x="53" y="183" width="10" height="10" fill="#000000" /><rect x="63" y="183" width="10" height="10" fill="#000000" /><rect x="93" y="183" width="10" height="10" fill="#000000" /><rect x="103" y="183" width="10" height="10" fill="#000000" /><rect x="123" y="183" width="10" height="10" fill="#000000" /><rect x="133" y="183" width="10" height="10" fill="#000000" /><rect x="143" y="183" width="10" height="10" fill="#000000" /><rect x="163" y="183" width="10" height="10" fill="#000000" /><rect x="183" y="183" width="10" height="10" fill="#000000" /><rect x="203" y="183" width="10" height="10" fill="#000000" /><rect x="213" y="183" width="10" height="10" fill="#000000" /><rect x="233" y="183" width="10" height="10" fill="#000000" /><rect x="243" y="183" width="10" height="10" fill="#000000" /><rect x="3" y="193" width="10" height="10" fill="#000000" /><rect x="63" y="193" width="10" height="10" fill="#000000" /><rect x="83" y="193" width="10" height="10" fill="#000000" /><rect x="93" y="193" width="10" height="10" fill="#000000" /><rect x="103" y="193" width="10" height="10" fill="#000000" /><rect x="123" y="193" width="10" height="10" fill="#000000" /><rect x="143" y="193" width="10" height="10" fill="#000000" /><rect x="153" y="193" width="10" height="10" fill="#000000" /><rect x="163" y="193" width="10" height="10" fill="#000000" /><rect x="203" y="193" width="10" height="10" fill="#000000" /><rect x="213" y="193" width="10" height="10" fill="#000000" /><rect x="243" y="193" width="10" height="10" fill="#000000" /><rect x="3" y="203" width="10" height="10" fill="#000000" /><rect x="23" y="203" width="10" height="10" fill="#000000" /><rect x="33" y="203" width="10" height="10" fill="#000000" /><rect x="43" y="203" width="10" height="10" fill="#000000" /><rect x="63" y="203" width="10" height="10" fill="#000000" /><rect x="83" y="203" width="10" height="10" fill="#000000" /><rect x="123" y="203" width="10" height="10" fill="#000000" /><rect x="133" y="203" width="10" height="10" fill="#000000" /><rect x="163" y="203" width="10" height="10" fill="#000000" /><rect x="173" y="203" width="10" height="10" fill="#000000" /><rect x="183" y="203" width="10" height="10" fill="#000000" /><rect x="193" y="203" width="10" height="10" fill="#000000" /><rect x="203" y="203" width="10" height="10" fill="#000000" /><rect x="3" y="213" width="10" height="10" fill="#000000" /><rect x="23" y="213" width="10" height="10" fill="#000000" /><rect x="33" y="213" width="10" height="10" fill="#000000" /><rect x="43" y="213" width="10" height="10" fill="#000000" /><rect x="63" y="213" width="10" height="10" fill="#000000" /><rect x="93" y="213" width="10" height="10" fill="#000000" /><rect x="133" y="213" width="10" height="10" fill="#000000" /><rect x="143" y="213" width="10" height="10" fill="#000000" /><rect x="173" y="213" width="10" height="10" fill="#000000" /><rect x="193" y="213" width="10" height="10" fill="#000000" /><rect x="203" y="213" width="10" height="10" fill="#000000" /><rect x="213" y="213" width="10" height="10" fill="#000000" /><rect x="233" y="213" width="10" height="10" fill="#000000" /><rect x="3" y="223" width="10" height="10" fill="#000000" /><rect x="23" y="223" width="10" height="10" fill="#000000" /><rect x="33" y="223" width="10" height="10" fill="#000000" /><rect x="43" y="223" width="10" height="10" fill="#000000" /><rect x="63" y="223" width="10" height="10" fill="#000000" /><rect x="83" y="223" width="10" height="10" fill="#000000" /><rect x="123" y="223" width="10" height="10" fill="#000000" /><rect x="133" y="223" width="10" height="10" fill="#000000" /><rect x="143" y="223" width="10" height="10" fill="#000000" /><rect x="163" y="223" width="10" height="10" fill="#000000" /><rect x="183" y="223" width="10" height="10" fill="#000000" /><rect x="193" y="223" width="10" height="10" fill="#000000" /><rect x="203" y="223" width="10" height="10" fill="#000000" /><rect x="223" y="223" width="10" height="10" fill="#000000" /><rect x="243" y="223" width="10" height="10" fill="#000000" /><rect x="3" y="233" width="10" height="10" fill="#000000" /><rect x="63" y="233" width="10" height="10" fill="#000000" /><rect x="103" y="233" width="10" height="10" fill="#000000" /><rect x="153" y="233" width="10" height="10" fill="#000000" /><rect x="183" y="233" width="10" height="10" fill="#000000" /><rect x="203" y="233" width="10" height="10" fill="#000000" /><rect x="233" y="233" width="10" height="10" fill="#000000" /><rect x="3" y="243" width="10" height="10" fill="#000000" /><rect x="13" y="243" width="10" height="10" fill="#000000" /><rect x="23" y="243" width="10" height="10" fill="#000000" /><rect x="33" y="243" width="10" height="10" fill="#000000" /><rect x="43" y="243" width="10" height="10" fill="#000000" /><rect x="53" y="243" width="10" height="10" fill="#000000" /><rect x="63" y="243" width="10" height="10" fill="#000000" /><rect x="93" y="243" width="10" height="10" fill="#000000" /><rect x="123" y="243" width="10" height="10" fill="#000000" /><rect x="133" y="243" width="10" height="10" fill="#000000" /><rect x="143" y="243" width="10" height="10" fill="#000000" /><rect x="153" y="243" width="10" height="10" fill="#000000" /><rect x="193" y="243" width="10" height="10" fill="#000000" /><rect x="203" y="243" width="10" height="10" fill="#000000" /><rect x="213" y="243" width="10" height="10" fill="#000000" /><rect x="223" y="243" width="10" height="10" fill="#000000" /><rect x="233" y="243" width="10" height="10" fill="#000000" /><rect x="243" y="243" width="10" height="10" fill="#000000" /></svg>