<svg xmlns="http://www.w3.org/2000/svg" viewBox="0 0 256 256" width="256" height="256"><path d="M0 0h256v256H0z" fill="#ffffff"/><path fill="#000000" d="M2 2h12v12h-12zM14 2h12v12h-12zM26 2h12v12h-12zM38 2h12v12h-12zM50 2h12v12h-12zM62 2h12v12h-12zM74 2h12v12h-12zM110 2h12v12h-12zM134 2h12v12h-12zM146 2h12v12h-12zM170 2h12v12h-12zM182 2h12v12h-12zM194 2h12v12h-12zM206 2h12v12h-12zM218 2h12v12h-12zM230 2h12v12h-12zM242 2h12v12h-12zM2 14h12v12h-12zM74 14h12v12h-12zM110 14h12v12h-12zM122 14h12v12h-12zM170 14h12v12h-12zM242 14h12v12h-12zM2 26h12v12h-12zM26 26h12v12h-12zM38 26h12v12h-12zM50 26h12v12h-12zM74 26h12v12h-12zM122 26h12v12h-12zM170 26h12v12h-12zM194 26h12v12h-12zM206 26h12v12h-12zM218 26h12v12h-12zM242 26h12v12h-12zM2 38h12v12h-12zM26 38h12v12h-12zM38 38h12v12h-12zM50 38h12v12h-12zM74 38h12v12h-12zM122 38h12v12h-12zM146 38h12v12h-12zM170 38h12v12h-12zM194 38h12v12h-12zM206 38h12v12h-12zM218 38h12v12h-12zM242 38h12v12h-12zM2 50h12v12h-12zM26 50h12v12h-12zM38 50h12v12h-12zM50 50h12v12h-12zM74 50h12v12h-12zM122 50h12v12h-12zM134 50h12v12h-12zM170 50h12v12h-12zM194 50h12v12h-12zM206 50h12v12h-12zM218 50h12v12h-12zM242 50h12v12h-12zM2 62h12v12h-12zM74 62h12v12h-12zM110 62h12v12h-12zM134 62h12v12h-12zM170 62h12v12h-12zM242 62h12v12h-12zM2 74h12v12h-12zM14 74h12v12h-12zM26 74h12v12h-12zM38 74h12v12h-12zM50 74h12v12h-12zM62 74h12v12h-12zM74 74h12v12h-12zM110 74h12v12h-12zM134 74h12v12h-12zM170 74h12v12h-12zM182 74h12v12h-12zM194 74h12v12h-12zM206 74h12v12h-12zM218 74h12v12h-12zM230 74h12v12h-12zM242 74h12v12h-12zM134 86h12v12h-12zM146 86h12v12h-12zM110 98h12v12h-12zM122 98h12v12h-12zM146 98h12v12h-12zM14 110h12v12h-12zM26 110h12v12h-12zM62 110h12v12h-12zM122 110h12v12h-12zM146 110h12v12h-12zM170 110h12v12h-12zM182 110h12v12h-12zM218 110h12v12h-12zM242 110h12v12h-12zM2 122h12v12h-12zM26 122h12v12h-12zM62 122h12v12h-12zM98 122h12v12h-12zM110 122h12v12h-12zM146 122h12v12h-12zM158 122h12v12h-12zM194 122h12v12h-12zM2 134h12v12h-12zM26 134h12v12h-12zM50 134h12v12h-12zM62 134h12v12h-12zM98 134h12v12h-12zM122 134h12v12h-12zM134 134h12v12h-12zM158 134h12v12h-12zM194 134h12v12h-12zM230 134h12v12h-12zM242 134h12v12h-12zM26 146h12v12h-12zM38 146h12v12h-12zM74 146h12v12h-12zM134 146h12v12h-12zM158 146h12v12h-12zM182 146h12v12h-12zM194 146h12v12h-12zM230 146h12v12h-12zM110 158h12v12h-12zM122 158h12v12h-12zM158 158h12v12h-12zM170 158h12v12h-12zM206 158h12v12h-12zM2 170h12v12h-12zM14 170h12v12h-12zM26 170h12v12h-12zM38 170h12v12h-12zM50 170h12v12h-12zM62 170h12v12h-12zM74 170h12v12h-12zM110 170h12v12h-12zM134 170h12v12h-12zM146 170h12v12h-12zM170 170h12v12h-12zM206 170h12v12h-12zM242 170h12v12h-12zM2 182h12v12h-12zM74 182h12v12h-12zM146 182h12v12h-12zM170 182h12v12h-12zM194 182h12v12h-12zM206 182h12v12h-12zM242 182h12v12h-12zM2 194h12v12h-12zM26 194h12v12h-12zM38 194h12v12h-12zM50 194h12v12h-12zM74 194h12v12h-12zM122 194h12v12h-12zM134 194h12v12h-12zM170 194h12v12h-12zM182 194h12v12h-12zM218 194h12v12h-12zM2 206h12v12h-12zM26 206h12v12h-12zM38 206h12v12h-12zM50 206h12v12h-12zM74 206h12v12h-12zM122 206h12v12h-12zM146 206h12v12h-12zM158 206h12v12h-12zM182 206h12v12h-12zM218 206h12v12h-12zM2 218h12v12h-12zM26 218h12v12h-12zM38 218h12v12h-12zM50 218h12v12h-12zM74 218h12v12h-12zM158 218h12v12h-12zM182 218h12v12h-12zM206 218h12v12h-12zM218 218h12v12h-12zM2 230h12v12h-12zM74 230h12v12h-12zM134 230h12v12h-12zM146 230h12v12h-12zM182 230h12v12h-12zM194 230h12v12h-12zM230 230h12v12h-12zM2 242h12v12h-12zM14 242h12v12h-12zM26 242h12v12h-12zM38 242h12v12h-12zM50 242h12v12h-12zM62 242h12v12h-12zM74 242h12v12h-12zM134 242h12v12h-12zM158 242h12v12h-12zM170 242h12v12h-12zM194 242h12v12h-12zM230 242h12v12h-12z"/></svg>